{
    "accessors" : [
        {
            "bufferView" : 0, 
            "componentType" : 5123, 
            "count" : 738, 
            "max" : [
                293
            ], 
            "min" : [
                0
            ], 
            "type" : "SCALAR"
        }, 
        {
            "bufferView" : 1, 
            "componentType" : 5126, 
            "count" : 294, 
            "max" : [
                4.075119972229004, 
                43.46549987792969, 
                6.514400005340576
            ], 
            "min" : [
                -6.353219985961914, 
                24.876100540161133, 
                -4.163909912109375
            ], 
            "type" : "VEC3"
        }, 
        {
            "bufferView" : 2, 
            "componentType" : 5126, 
            "count" : 294, 
            "max" : [
                1.0, 
                1.0, 
                1.0
            ], 
            "min" : [
                -1.0, 
                -1.0, 
                -1.0
            ], 
            "type" : "VEC3"
        }, 
        {
            "bufferView" : 3, 
            "componentType" : 5126, 
            "count" : 294, 
            "max" : [
                1.0, 
                1.0, 
                1.0, 
                1.0
            ], 
            "min" : [
                -1.0, 
                -1.0, 
                -1.0, 
                1.0
            ], 
            "type" : "VEC4"
        }, 
        {
            "bufferView" : 4, 
            "componentType" : 5126, 
            "count" : 294, 
            "max" : [
                0.9975900053977966, 
                0.9961900000926107
            ], 
            "min" : [
                0.014170000329613686, 
                0.0036299824714660645
            ], 
            "type" : "VEC2"
        }, 
        {
            "bufferView" : 5, 
            "componentType" : 5123, 
            "count" : 2490, 
            "max" : [
                1419
            ], 
            "min" : [
                0
            ], 
            "type" : "SCALAR"
        }, 
        {
            "bufferView" : 6, 
            "componentType" : 5126, 
            "count" : 1420, 
            "max" : [
                65.0, 
                35.23350143432617, 
                13.968799591064453
            ], 
            "min" : [
                -65.0, 
                -37.907100677490234, 
                -20.9960994720459
            ], 
            "type" : "VEC3"
        }, 
        {
            "bufferView" : 7, 
            "componentType" : 5126, 
            "count" : 1420, 
            "max" : [
                1.0, 
                1.0, 
                1.0
            ], 
            "min" : [
                -1.0, 
                -1.0, 
                -1.0
            ], 
            "type" : "VEC3"
        }, 
        {
            "bufferView" : 8, 
            "componentType" : 5126, 
            "count" : 1420, 
            "max" : [
                1.0, 
                1.0, 
                1.0, 
                1.0
            ], 
            "min" : [
                -1.0, 
                -1.0, 
                -1.0, 
                1.0
            ], 
            "type" : "VEC4"
        }, 
        {
            "bufferView" : 9, 
            "componentType" : 5126, 
            "count" : 1420, 
            "max" : [
                0.999180018901825, 
                0.9989999999525025
            ], 
            "min" : [
                0.00039999998989515007, 
                0.0009499788284301758
            ], 
            "type" : "VEC2"
        }
    ], 
    "asset" : {
        "generator" : "Khronos Blender glTF 2.0 exporter", 
        "version" : "2.0"
    }, 
    "bufferViews" : [
        {
            "buffer" : 0, 
            "byteLength" : 1476, 
            "byteOffset" : 0, 
            "target" : 34963
        }, 
        {
            "buffer" : 0, 
            "byteLength" : 3528, 
            "byteOffset" : 1476, 
            "target" : 34962
        }, 
        {
            "buffer" : 0, 
            "byteLength" : 3528, 
            "byteOffset" : 5004, 
            "target" : 34962
        }, 
        {
            "buffer" : 0, 
            "byteLength" : 4704, 
            "byteOffset" : 8532, 
            "target" : 34962
        }, 
        {
            "buffer" : 0, 
            "byteLength" : 2352, 
            "byteOffset" : 13236, 
            "target" : 34962
        }, 
        {
            "buffer" : 0, 
            "byteLength" : 4980, 
            "byteOffset" : 15588, 
            "target" : 34963
        }, 
        {
            "buffer" : 0, 
            "byteLength" : 17040, 
            "byteOffset" : 20568, 
            "target" : 34962
        }, 
        {
            "buffer" : 0, 
            "byteLength" : 17040, 
            "byteOffset" : 37608, 
            "target" : 34962
        }, 
        {
            "buffer" : 0, 
            "byteLength" : 22720, 
            "byteOffset" : 54648, 
            "target" : 34962
        }, 
        {
            "buffer" : 0, 
            "byteLength" : 11360, 
            "byteOffset" : 77368, 
            "target" : 34962
        }
    ], 
    "buffers" : [
        {
            "byteLength" : 88728, 
            "uri" : "resources/models/cobra3.bin"
        }
    ], 
    "cameras" : [
        {
            "name" : "Camera", 
            "perspective" : {
                "aspectRatio" : 1.7777777777777777, 
                "yfov" : 0.5033799372418416, 
                "zfar" : 100.0, 
                "znear" : 0.10000000149011612
            }, 
            "type" : "perspective"
        }
    ], 
    "images" : [
        {
            "uri" : "resources/textures/cobra3/subents.png"
        }, 
        {
            "uri" : "resources/textures/cobra3/diffuse.png"
        }
    ], 
    "materials" : [
        {
            "alphaMode" : "BLEND", 
            "name" : "Gun", 
            "pbrMetallicRoughness" : {
                "baseColorFactor" : [
                    0.784313976764679, 
                    0.784313976764679, 
                    0.784313976764679, 
                    1.0
                ], 
                "baseColorTexture" : {
                    "index" : 0
                }, 
                "metallicFactor" : 0.0
            }
        }, 
        {
            "alphaMode" : "BLEND", 
            "name" : "Hull", 
            "pbrMetallicRoughness" : {
                "baseColorFactor" : [
                    0.784313976764679, 
                    0.784313976764679, 
                    0.784313976764679, 
                    1.0
                ], 
                "baseColorTexture" : {
                    "index" : 1
                }, 
                "metallicFactor" : 0.0
            }
        }
    ], 
    "meshes" : [
        {
            "name" : "CobraIII.obj_Gun", 
            "primitives" : [
                {
                    "attributes" : {
                        "NORMAL" : 2, 
                        "POSITION" : 1, 
                        "TANGENT" : 3, 
                        "TEXCOORD_0" : 4
                    }, 
                    "indices" : 0, 
                    "material" : 0
                }
            ]
        }, 
        {
            "name" : "CobraIII.obj_Hull", 
            "primitives" : [
                {
                    "attributes" : {
                        "NORMAL" : 7, 
                        "POSITION" : 6, 
                        "TANGENT" : 8, 
                        "TEXCOORD_0" : 9
                    }, 
                    "indices" : 5, 
                    "material" : 1
                }
            ]
        }
    ], 
    "nodes" : [
        {
            "camera" : 0, 
            "name" : "Correction_Camera", 
            "rotation" : [
                -0.7071067690849304, 
                -0.0, 
                0.0, 
                0.7071067690849304
            ]
        }, 
        {
            "children" : [
                0
            ], 
            "name" : "Camera", 
            "rotation" : [
                0.483536034822464, 
                0.33687159419059753, 
                -0.20870360732078552, 
                0.7804827094078064
            ], 
            "translation" : [
                7.481131553649902, 
                5.34366512298584, 
                6.5076398849487305
            ]
        }, 
        {
            "mesh" : 0, 
            "name" : "CobraIII.obj_Gun", 
            "rotation" : [
                0.7071068286895752, 
                0.0, 
                -0.0, 
                0.7071067094802856
            ]
        }, 
        {
            "mesh" : 1, 
            "name" : "CobraIII.obj_Hull", 
            "rotation" : [
                0.7071068286895752, 
                0.0, 
                -0.0, 
                0.7071067094802856
            ]
        }, 
        {
            "name" : "Lamp", 
            "rotation" : [
                0.16907575726509094, 
                0.7558802962303162, 
                -0.27217137813568115, 
                0.570947527885437
            ], 
            "scale" : [
                1.0, 
                1.0, 
                0.9999999403953552
            ], 
            "translation" : [
                4.076245307922363, 
                30.193096160888672, 
                -1.0054539442062378
            ]
        }
    ], 
    "samplers" : [
        {}
    ], 
    "scene" : 0, 
    "scenes" : [
        {
            "name" : "Scene", 
            "nodes" : [
                3, 
                2, 
                4, 
                1
            ]
        }
    ], 
    "textures" : [
        {
            "sampler" : 0, 
            "source" : 0
        }, 
        {
            "sampler" : 0, 
            "source" : 1
        }
    ]
}
