{
    "accessors" : [
        {
            "bufferView" : 0, 
            "componentType" : 5125, 
            "count" : 1474560, 
            "max" : [
                983039
            ], 
            "min" : [
                0
            ], 
            "type" : "SCALAR"
        }, 
        {
            "bufferView" : 1, 
            "componentType" : 5126, 
            "count" : 983040, 
            "max" : [
                0.9201000928878784, 
                0.9426277875900269, 
                0.9378341436386108
            ], 
            "min" : [
                -0.9265395998954773, 
                -0.9289342761039734, 
                -0.9376459717750549
            ], 
            "type" : "VEC3"
        }, 
        {
            "bufferView" : 2, 
            "componentType" : 5126, 
            "count" : 983040, 
            "max" : [
                0.9999954104423523, 
                0.9999845027923584, 
                0.9998930096626282
            ], 
            "min" : [
                -0.9999890327453613, 
                -0.999991774559021, 
                -0.9999624490737915
            ], 
            "type" : "VEC3"
        }
    ], 
    "asset" : {
        "generator" : "Khronos Blender glTF 2.0 exporter", 
        "version" : "2.0"
    }, 
    "bufferViews" : [
        {
            "buffer" : 0, 
            "byteLength" : 5898240, 
            "byteOffset" : 0, 
            "target" : 34963
        }, 
        {
            "buffer" : 0, 
            "byteLength" : 11796480, 
            "byteOffset" : 5898240, 
            "target" : 34962
        }, 
        {
            "buffer" : 0, 
            "byteLength" : 11796480, 
            "byteOffset" : 17694720, 
            "target" : 34962
        }
    ], 
    "buffers" : [
        {
            "byteLength" : 29491200, 
            "uri" : "asteroid.bin"
        }
    ], 
    "meshes" : [
        {
            "name" : "Icosphere", 
            "primitives" : [
                {
                    "attributes" : {
                        "NORMAL" : 2, 
                        "POSITION" : 1
                    }, 
                    "indices" : 0
                }
            ]
        }
    ], 
    "nodes" : [
        {
            "mesh" : 0, 
            "name" : "Asteroid"
        }
    ], 
    "scene" : 0, 
    "scenes" : [
        {
            "name" : "Scene", 
            "nodes" : [
                0
            ]
        }
    ]
}
