{
    "accessors" : [
        {
            "bufferView" : 0, 
            "componentType" : 5123, 
            "count" : 47616, 
            "max" : [
                31743
            ], 
            "min" : [
                0
            ], 
            "type" : "SCALAR"
        }, 
        {
            "bufferView" : 1, 
            "componentType" : 5126, 
            "count" : 31744, 
            "max" : [
                1.0419353246688843, 
                1.1370141506195068, 
                1.0692100524902344
            ], 
            "min" : [
                -1.1284526586532593, 
                -1.060044288635254, 
                -1.0524696111679077
            ], 
            "type" : "VEC3"
        }, 
        {
            "bufferView" : 2, 
            "componentType" : 5126, 
            "count" : 31744, 
            "max" : [
                0.9996443390846252, 
                0.99997478723526, 
                0.9995813965797424
            ], 
            "min" : [
                -0.9997333288192749, 
                -0.9992616772651672, 
                -0.9997341632843018
            ], 
            "type" : "VEC3"
        }
    ], 
    "asset" : {
        "generator" : "Khronos Blender glTF 2.0 exporter", 
        "version" : "2.0"
    }, 
    "bufferViews" : [
        {
            "buffer" : 0, 
            "byteLength" : 95232, 
            "byteOffset" : 0, 
            "target" : 34963
        }, 
        {
            "buffer" : 0, 
            "byteLength" : 380928, 
            "byteOffset" : 95232, 
            "target" : 34962
        }, 
        {
            "buffer" : 0, 
            "byteLength" : 380928, 
            "byteOffset" : 476160, 
            "target" : 34962
        }
    ], 
    "buffers" : [
        {
            "byteLength" : 857088, 
            "uri" : "asteroid.bin"
        }
    ], 
    "meshes" : [
        {
            "name" : "Sphere", 
            "primitives" : [
                {
                    "attributes" : {
                        "NORMAL" : 2, 
                        "POSITION" : 1
                    }, 
                    "indices" : 0
                }
            ]
        }
    ], 
    "nodes" : [
        {
            "mesh" : 0, 
            "name" : "Sphere"
        }
    ], 
    "scene" : 0, 
    "scenes" : [
        {
            "name" : "Scene", 
            "nodes" : [
                0
            ]
        }
    ]
}
